# xmcd
#
# Track frame offsets: 
#        150
#        12560
#        22308
#        32890
#        44748
#        57405
#        66960
#        76273
#        88826
#        99974
#        111952
#
# Disc length: 1670 seconds
#
# Revision: 0
# Processed by: cddbd v1.5.2PL0 Copyright (c) Steve Scherf et al.
# Submitted via: ExactAudioCopy v0.95b3
#
DISCID=9906840b
DTITLE=Kinks  - Kinkdom  (4th US Album 1965) MONO  FLAC
DYEAR=1900
DGENRE=
TTITLE0=Well Respected Man
TTITLE1=Wait Till Summer Comes Along
TTITLE2=Such A Shame
TTITLE3=Naggin' Woman
TTITLE4=See My Friends
TTITLE5=Never Met A Girl Like You Before
TTITLE6=Who'll Be the Next in Line
TTITLE7=Don't You Fret
TTITLE8=I Need You
TTITLE9=It's Alright
TTITLE10=Louie, Louie
EXTD=
EXTT0=
EXTT1=
EXTT2=
EXTT3=
EXTT4=
EXTT5=
EXTT6=
EXTT7=
EXTT8=
EXTT9=
EXTT10=
PLAYORDER=
